<svg width="22" height="20" viewBox="0 0 22 20" fill="none" xmlns="http://www.w3.org/2000/svg">
<path d="M22 13.5C22 15.2239 20.8411 16.8772 18.7782 18.0962C16.7153 19.3152 13.9174 20 11 20C8.08262 20 5.28473 19.3152 3.22183 18.0962C1.15893 16.8772 4.40512e-07 15.2239 0 13.5L1.3604 13.5C1.36041 15.0107 2.376 16.4595 4.18378 17.5278C5.99155 18.596 8.44342 19.1961 11 19.1961C13.5566 19.1961 16.0084 18.596 17.8162 17.5278C19.624 16.4595 20.6396 15.0107 20.6396 13.5H22Z" fill="white"/>
<path d="M2.224 13.042C1.846 13.042 1.554 12.946 1.348 12.754C1.144 12.562 1.042 12.255 1.042 11.833C1.042 11.027 1.434 10.624 2.218 10.624C2.408 10.624 2.584 10.647 2.746 10.693C2.91 10.739 3.032 10.79 3.112 10.846V11.596H2.392V11.38C2.392 11.304 2.375 11.248 2.341 11.212C2.307 11.176 2.256 11.158 2.188 11.158C2.12 11.158 2.069 11.176 2.035 11.212C2.001 11.248 1.984 11.304 1.984 11.38V12.286C1.984 12.362 2.001 12.418 2.035 12.454C2.069 12.49 2.12 12.508 2.188 12.508C2.256 12.508 2.307 12.49 2.341 12.454C2.375 12.418 2.392 12.362 2.392 12.286V12.043H3.112V12.82C3.03 12.876 2.908 12.927 2.746 12.973C2.586 13.019 2.412 13.042 2.224 13.042ZM4.11304 13.042C3.82904 13.042 3.60704 12.968 3.44704 12.82C3.28704 12.67 3.20704 12.452 3.20704 12.166C3.20704 11.88 3.28704 11.663 3.44704 11.515C3.60704 11.365 3.82904 11.29 4.11304 11.29C4.40104 11.29 4.62404 11.366 4.78204 11.518C4.94004 11.668 5.01904 11.884 5.01904 12.166C5.01904 12.452 4.93904 12.67 4.77904 12.82C4.61904 12.968 4.39704 13.042 4.11304 13.042ZM4.11304 12.508C4.17104 12.508 4.21404 12.493 4.24204 12.463C4.27204 12.431 4.28704 12.382 4.28704 12.316V12.016C4.28704 11.95 4.27204 11.902 4.24204 11.872C4.21404 11.84 4.17104 11.824 4.11304 11.824C4.05504 11.824 4.01104 11.84 3.98104 11.872C3.95304 11.902 3.93904 11.95 3.93904 12.016V12.316C3.93904 12.382 3.95304 12.431 3.98104 12.463C4.01104 12.493 4.05504 12.508 4.11304 12.508ZM6.00855 13.042C5.72455 13.042 5.50255 12.968 5.34255 12.82C5.18255 12.67 5.10255 12.452 5.10255 12.166C5.10255 11.88 5.18255 11.663 5.34255 11.515C5.50255 11.365 5.72455 11.29 6.00855 11.29C6.29655 11.29 6.51955 11.366 6.67755 11.518C6.83555 11.668 6.91455 11.884 6.91455 12.166C6.91455 12.452 6.83455 12.67 6.67455 12.82C6.51455 12.968 6.29255 13.042 6.00855 13.042ZM6.00855 12.508C6.06655 12.508 6.10955 12.493 6.13755 12.463C6.16755 12.431 6.18255 12.382 6.18255 12.316V12.016C6.18255 11.95 6.16755 11.902 6.13755 11.872C6.10955 11.84 6.06655 11.824 6.00855 11.824C5.95055 11.824 5.90655 11.84 5.87655 11.872C5.84855 11.902 5.83455 11.95 5.83455 12.016V12.316C5.83455 12.382 5.84855 12.431 5.87655 12.463C5.90655 12.493 5.95055 12.508 6.00855 12.508ZM8.81905 12.508H8.94805V13H8.21305L7.90405 12.424H7.83205V13H7.01005V12.508H7.14205V11.158H7.01005V10.666H7.83205V11.884H7.90405L8.27605 11.332H8.90905V11.824H8.78605L8.53105 12.109L8.81905 12.508ZM12.3487 11.158H12.1987V12.508H12.3487V13H11.2147V12.508H11.3587V12.013H10.9387V12.508H11.0827V13H9.94867V12.508H10.0987V11.158H9.94867V10.666H11.0827V11.158H10.9387V11.614H11.3587V11.158H11.2147V10.666H12.3487V11.158ZM13.3562 13.042C13.0722 13.042 12.8502 12.968 12.6902 12.82C12.5302 12.67 12.4502 12.452 12.4502 12.166C12.4502 11.88 12.5302 11.663 12.6902 11.515C12.8502 11.365 13.0722 11.29 13.3562 11.29C13.6382 11.29 13.8412 11.364 13.9652 11.512C14.0912 11.658 14.1542 11.84 14.1542 12.058V12.274H13.1822V12.292C13.1822 12.366 13.2042 12.421 13.2482 12.457C13.2922 12.491 13.3652 12.508 13.4672 12.508C13.5892 12.508 13.7052 12.499 13.8152 12.481C13.9252 12.463 14.0212 12.44 14.1032 12.412V12.892C14.0332 12.93 13.9302 12.965 13.7942 12.997C13.6602 13.027 13.5142 13.042 13.3562 13.042ZM13.5302 11.944V11.908C13.5302 11.84 13.5152 11.791 13.4852 11.761C13.4572 11.731 13.4142 11.716 13.3562 11.716C13.2982 11.716 13.2542 11.732 13.2242 11.764C13.1962 11.794 13.1822 11.842 13.1822 11.908V11.944H13.5302ZM14.2435 13.003V12.508H14.3755V11.158H14.2435V10.666H15.0655V12.508H15.1975V13.003H14.2435ZM15.2803 13.174H15.4123V11.824H15.2803V11.332H16.1023V11.536C16.1523 11.472 16.2163 11.415 16.2943 11.365C16.3743 11.315 16.4653 11.29 16.5673 11.29C16.7713 11.29 16.9243 11.366 17.0263 11.518C17.1303 11.67 17.1823 11.886 17.1823 12.166C17.1823 12.446 17.1303 12.662 17.0263 12.814C16.9243 12.966 16.7713 13.042 16.5673 13.042C16.4653 13.042 16.3743 13.017 16.2943 12.967C16.2163 12.917 16.1523 12.86 16.1023 12.796V13.174H16.3093V13.666H15.2803V13.174ZM16.2763 12.508C16.3343 12.508 16.3773 12.493 16.4053 12.463C16.4353 12.431 16.4503 12.382 16.4503 12.316V12.016C16.4503 11.95 16.4353 11.902 16.4053 11.872C16.3773 11.84 16.3343 11.824 16.2763 11.824C16.2183 11.824 16.1743 11.84 16.1443 11.872C16.1163 11.902 16.1023 11.95 16.1023 12.016V12.316C16.1023 12.382 16.1163 12.431 16.1443 12.463C16.1743 12.493 16.2183 12.508 16.2763 12.508ZM18.1609 13.042C17.8769 13.042 17.6549 12.968 17.4949 12.82C17.3349 12.67 17.2549 12.452 17.2549 12.166C17.2549 11.88 17.3349 11.663 17.4949 11.515C17.6549 11.365 17.8769 11.29 18.1609 11.29C18.4429 11.29 18.6459 11.364 18.7699 11.512C18.8959 11.658 18.9589 11.84 18.9589 12.058V12.274H17.9869V12.292C17.9869 12.366 18.0089 12.421 18.0529 12.457C18.0969 12.491 18.1699 12.508 18.2719 12.508C18.3939 12.508 18.5099 12.499 18.6199 12.481C18.7299 12.463 18.8259 12.44 18.9079 12.412V12.892C18.8379 12.93 18.7349 12.965 18.5989 12.997C18.4649 13.027 18.3189 13.042 18.1609 13.042ZM18.3349 11.944V11.908C18.3349 11.84 18.3199 11.791 18.2899 11.761C18.2619 11.731 18.2189 11.716 18.1609 11.716C18.1029 11.716 18.0589 11.732 18.0289 11.764C18.0009 11.794 17.9869 11.842 17.9869 11.908V11.944H18.3349ZM20.3291 11.29C20.3691 11.29 20.4071 11.294 20.4431 11.302C20.4791 11.31 20.5091 11.32 20.5331 11.332V11.905C20.4511 11.871 20.3631 11.854 20.2691 11.854C20.1431 11.854 20.0461 11.887 19.9781 11.953C19.9101 12.019 19.8761 12.117 19.8761 12.247V12.508H20.1461V13H19.0541V12.508H19.1861V11.824H19.0541V11.332H19.8761V11.551C19.9321 11.467 19.9961 11.403 20.0681 11.359C20.1401 11.313 20.2271 11.29 20.3291 11.29Z" fill="white"/>
<path d="M10.2786 4.74555C10.2786 7.43088 11.4543 9 10.2786 9C11.1301 9 10.2786 7.37926 8.14967 4.74555C7.08522 1.50407 11.9817 1.45949 13.8977 0.0859185C14.7235 -0.506105 10.2786 2.06022 10.2786 4.74555Z" fill="white"/>
<path d="M4.9544 5.07315C5.83756 7.5656 7.69302 9.07634 6.5535 9.58613C6.84706 8.75923 3.77428 8.48866 2.89112 5.99621C2.89112 2.548 5.88374 3.09609 6.5535 2C6.5535 3.09609 4.07125 2.5807 4.9544 5.07315Z" fill="white"/>
<path d="M14.3861 7.04091C13.5565 8.38551 13.3745 9.77466 12.884 9.47552C13.5945 9.90883 12.6684 7.84387 13.4981 6.49927C14.3277 5.15467 15.1231 3.3457 17.3355 5.62854C16.4767 4.89195 15.2158 5.69631 14.3861 7.04091Z" fill="white"/>
</svg>
